<svg width="33" height="36" id="footer-logo-mobile" viewBox="0 0 33 36" fill="none" xmlns="http://www.w3.org/2000/svg">
<path fill-rule="evenodd" clip-rule="evenodd" d="M0 9.75859C0 7.15853 1.00887 4.71046 2.85007 2.86173C4.69126 1.013 7.12934 0 9.71882 0H32.1662V4.96371H9.71882C8.44932 4.96371 7.25546 5.46175 6.34751 6.37346C5.43951 7.28517 4.94347 8.49236 4.94347 9.76702L4.90984 18.099C4.68285 20.3107 3.01821 22.0919 0.874359 22.4211L0 22.5477V9.75859ZM0 32.2388V27.2751H22.4474C23.7169 27.2751 24.9191 26.7686 25.8187 25.8653C26.7267 24.9537 27.2228 23.7549 27.2228 22.4802L27.2312 14.5788C27.2312 12.2236 28.9799 10.1806 31.2918 9.82613L32.1662 9.69105V22.4802C32.1662 25.0802 31.1489 27.5284 29.3162 29.3771C28.6565 30.0394 27.9204 30.5944 27.1281 31.034C27.2291 31.374 27.2834 31.7341 27.2834 32.107C27.2834 34.176 25.6124 35.8532 23.5512 35.8532C21.5338 35.8532 19.8903 34.2468 19.8212 32.2388H12.3341C12.2649 34.2468 10.6214 35.8532 8.60408 35.8532C6.58674 35.8532 4.94324 34.2468 4.87408 32.2388H0ZM19.0089 16.1574V22.5646H22.8846V9.94428H19.219L16.0831 14.0048L12.9556 9.94428H9.28163V22.5646H13.1574V16.1574L16.0831 19.6607L19.0089 16.1574Z" fill="white"/>
</svg>
